<svg width="23" height="22" viewBox="0 0 23 22" fill="none" xmlns="http://www.w3.org/2000/svg">
<path fill-rule="evenodd" clip-rule="evenodd" d="M1.70011 0.285966C1.30576 -0.100695 0.672626 -0.0944605 0.285966 0.29989C-0.100695 0.69424 -0.0944605 1.32737 0.29989 1.71404L9.66886 10.9003L0.301962 20.0845C-0.0923881 20.4712 -0.0986213 21.1043 0.288038 21.4987C0.674698 21.893 1.30783 21.8993 1.70218 21.5126L11.0972 12.3008L20.4916 21.512C20.886 21.8987 21.5191 21.8924 21.9058 21.4981C22.2924 21.1037 22.2862 20.4706 21.8918 20.0839L12.5255 10.9003L21.8939 1.71462C22.2883 1.32796 22.2945 0.69483 21.9078 0.300479C21.5212 -0.0938712 20.888 -0.100105 20.4937 0.286555L11.0972 9.49981L1.70011 0.285966Z" fill="white"/>
</svg>
