<svg width="136" height="54" viewBox="0 0 136 54" fill="none" xmlns="http://www.w3.org/2000/svg">
<path d="M117.452 0.244873V3.91317H128.09C128.47 3.91317 128.871 3.96748 129.292 4.07608C129.713 4.18499 130.087 4.44284 130.413 4.85056C130.685 5.17668 130.855 5.51616 130.923 5.86957C130.991 6.22269 131.025 6.56245 131.025 6.88857V8.39659H121.65C121.08 8.39659 120.448 8.45773 119.755 8.57998C119.062 8.70224 118.376 9.06218 117.696 9.66011C116.881 10.3666 116.372 11.1818 116.168 12.1055C115.964 13.0296 115.862 13.967 115.862 14.918C115.862 15.3255 115.876 15.7875 115.903 16.3038C115.93 16.8201 116.005 17.3498 116.127 17.8934C116.25 18.4368 116.44 18.9599 116.698 19.4626C116.956 19.9653 117.302 20.4068 117.737 20.7872C118.362 21.3306 119.021 21.643 119.714 21.7246C120.407 21.8062 121.052 21.8469 121.65 21.8469H131.962C132.478 21.8469 133.008 21.7994 133.551 21.7042C134.095 21.6092 134.557 21.3715 134.937 20.9911C135.318 20.6107 135.556 20.1487 135.651 19.605C135.746 19.0617 135.793 18.5997 135.793 18.2193V7.01083C135.793 5.78797 135.644 4.74879 135.345 3.89269C135.046 3.0369 134.666 2.37784 134.204 1.91581C133.715 1.39978 133.076 0.992073 132.288 0.693256C131.5 0.394143 130.644 0.244873 129.72 0.244873H117.452ZM131.025 12.0649V17.0374C131.025 17.2006 131.011 17.3566 130.984 17.5062C130.957 17.6555 130.862 17.7982 130.698 17.9341C130.535 18.07 130.352 18.1448 130.148 18.1581C129.944 18.1718 129.775 18.1786 129.639 18.1786H122.995C122.696 18.1786 122.404 18.1107 122.119 17.9747C121.834 17.8388 121.609 17.6896 121.446 17.5264C121.148 17.2276 120.964 16.8335 120.896 16.3445C120.828 15.8554 120.794 15.4477 120.794 15.1216C120.794 14.3338 120.862 13.7768 120.998 13.4507C121.134 13.1245 121.242 12.907 121.324 12.7984C121.596 12.4453 121.915 12.2346 122.282 12.1667C122.649 12.0987 122.914 12.0649 123.077 12.0649H131.025Z" fill="#2B7AF1"/>
<path d="M92.8333 18.1782H90.877V21.8465H115.21V18.1782H113.294L106.528 2.11931C106.311 1.57598 105.965 1.08695 105.489 0.651928C105.014 0.217205 104.205 0 103.064 0C101.95 0 101.148 0.203566 100.659 0.611286C100.17 1.01901 99.8032 1.52168 99.5587 2.11931L92.8333 18.1782ZM102.616 4.76859C102.67 4.63268 102.738 4.50361 102.819 4.38135C102.901 4.25909 102.982 4.19796 103.064 4.19796C103.2 4.19796 103.288 4.26592 103.329 4.40182C103.37 4.53773 103.417 4.65998 103.471 4.76859L108.648 18.1782H97.48L102.616 4.76859Z" fill="#2B7AF1"/>
<path d="M89.6542 21.8469V0.244873H84.8855V8.88562H74.5736V0.244873H69.8047V21.8469H74.5736V12.5539H84.8855V21.8469H89.6542Z" fill="#2B7AF1"/>
<path d="M66.4221 21.8467V18.1784H55.8656C55.4309 18.1784 54.9893 18.1511 54.5409 18.0968C54.0925 18.0425 53.6644 17.9271 53.2569 17.7505C52.8492 17.574 52.4961 17.3158 52.1973 16.976C51.8981 16.6363 51.6673 16.1814 51.5044 15.6107C51.4228 15.2846 51.3549 14.8226 51.3006 14.225C51.2462 13.627 51.2189 13.0971 51.2189 12.6353H63.7728C64.2075 12.6353 64.6217 12.581 65.0158 12.4721C65.4099 12.3635 65.7698 12.1463 66.096 11.8202C66.5577 11.3582 66.8431 10.835 66.9517 10.251C67.0604 9.66675 67.115 9.10295 67.115 8.55933C67.115 7.88009 67.074 7.20767 66.9927 6.54179C66.9111 5.8762 66.7547 5.23763 66.5239 4.62634C66.293 4.01477 65.9805 3.45097 65.5865 2.93464C65.1924 2.41832 64.6829 1.95658 64.058 1.54886C63.0526 0.923931 61.9318 0.536682 60.6953 0.387422C59.4591 0.237866 58.2024 0.163086 56.9252 0.163086C56.4089 0.163086 55.8113 0.176739 55.1317 0.203743C54.4525 0.231043 53.746 0.305823 53.0124 0.428079C52.2786 0.550336 51.5519 0.747368 50.8317 1.01918C50.1118 1.2907 49.4528 1.68477 48.8551 2.2011C48.2572 2.71742 47.7883 3.28805 47.4489 3.91298C47.1091 4.53792 46.8509 5.22397 46.6744 5.97116C46.4978 6.71835 46.3892 7.5338 46.3483 8.4169C46.3076 9.29999 46.2871 10.2442 46.2871 11.2496C46.2871 12.6896 46.3687 14.1027 46.5316 15.4885C46.6948 16.8742 47.1296 18.0835 47.8361 19.1158C48.2708 19.7408 48.7599 20.2366 49.3032 20.6037C49.8468 20.9704 50.4038 21.2488 50.9744 21.439C51.5451 21.6292 52.1293 21.7449 52.7269 21.7856C53.3249 21.8262 53.8955 21.8467 54.4389 21.8467H66.4221ZM51.2189 8.96704C51.2462 8.2605 51.2937 7.60146 51.3616 6.99017C51.4296 6.37889 51.7079 5.80143 52.1973 5.2581C52.5234 4.90469 52.8833 4.62634 53.2774 4.42248C53.6712 4.21862 54.0721 4.07589 54.4798 3.99459C54.8872 3.91298 55.2813 3.8655 55.6617 3.85185C56.0421 3.8382 56.3953 3.83138 56.7214 3.83138C57.4006 3.83138 58.1003 3.87886 58.8205 3.97411C59.5404 4.06907 60.1994 4.34771 60.7974 4.80973C61.1505 5.08125 61.4698 5.46167 61.7549 5.95099C62.0404 6.44002 62.1832 7.0243 62.1832 7.70354C62.1832 8.00235 62.122 8.28781 61.9997 8.55933C61.8775 8.83114 61.5852 8.96704 61.1232 8.96704H51.2189Z" fill="#2B7AF1"/>
<path d="M2.47197 0.244873V3.91317H13.1101C13.4905 3.91317 13.8911 3.96748 14.3124 4.07608C14.7335 4.18499 15.1071 4.44284 15.4332 4.85056C15.705 5.17668 15.8748 5.51616 15.9427 5.86957C16.0107 6.22269 16.0445 6.56245 16.0445 6.88857V8.39659H6.67019C6.09956 8.39659 5.46783 8.45773 4.77494 8.57998C4.08205 8.70224 3.39566 9.06218 2.71643 9.66011C1.90128 10.3666 1.39179 11.1818 1.18793 12.1055C0.984368 13.0296 0.882324 13.967 0.882324 14.918C0.882324 15.3255 0.895942 15.7875 0.923242 16.3038C0.950245 16.8201 1.02505 17.3498 1.1473 17.8934C1.26956 18.4368 1.45978 18.9599 1.71795 19.4626C1.97611 19.9653 2.32238 20.4068 2.7574 20.7872C3.38234 21.3306 4.04108 21.643 4.73396 21.7246C5.42685 21.8062 6.07226 21.8469 6.67019 21.8469H16.9819C17.4982 21.8469 18.0282 21.7994 18.5715 21.7042C19.1151 21.6092 19.5769 21.3715 19.9573 20.9911C20.3377 20.6107 20.5757 20.1487 20.6707 19.605C20.7659 19.0617 20.8134 18.5997 20.8134 18.2193V7.01083C20.8134 5.78797 20.6638 4.74879 20.365 3.89269C20.0662 3.0369 19.6858 2.37784 19.2238 1.91581C18.7347 1.39978 18.0961 0.992073 17.308 0.693256C16.5202 0.394143 15.6641 0.244873 14.7403 0.244873H2.47197ZM16.0445 12.0649V17.0374C16.0445 17.2006 16.0312 17.3566 16.0039 17.5062C15.9766 17.6555 15.8816 17.7982 15.7184 17.9341C15.5554 18.07 15.3721 18.1448 15.1682 18.1581C14.9644 18.1718 14.7946 18.1786 14.6587 18.1786H8.01502C7.7162 18.1786 7.42423 18.1107 7.13877 17.9747C6.8536 17.8388 6.62926 17.6896 6.46635 17.5264C6.16754 17.2276 5.98382 16.8335 5.91617 16.3445C5.84821 15.8554 5.81411 15.4477 5.81411 15.1216C5.81411 14.3338 5.88209 13.7768 6.018 13.4507C6.1539 13.1245 6.26246 12.907 6.34406 12.7984C6.61558 12.4453 6.93491 12.2346 7.30197 12.1667C7.66874 12.0987 7.93371 12.0649 8.09662 12.0649H16.0445Z" fill="#2B7AF1"/>
<path fill-rule="evenodd" clip-rule="evenodd" d="M5.93478 27.3057H129.695C132.959 27.3057 135.63 29.9763 135.63 33.2404V48.0649C135.63 51.3291 132.959 53.9997 129.695 53.9997H5.93478C2.67065 53.9997 0 51.3291 0 48.0649V33.2404C0 29.9763 2.67065 27.3057 5.93478 27.3057Z" fill="#FF7D03"/>
<path d="M19.3169 47.3347L14.1791 41.9697C14.088 41.8786 13.9934 41.7459 13.8949 41.5717C13.7963 41.3973 13.7471 41.2498 13.7471 41.1284C13.7471 40.9314 13.8153 40.7456 13.9515 40.5714C14.088 40.3973 14.2094 40.2569 14.3153 40.151L18.8848 35.2859H15.7249L11.8829 39.5599C11.7162 39.7569 11.5343 39.9916 11.3373 40.2646C11.1402 40.5373 11.0417 40.8252 11.0417 41.1284C11.0417 41.4314 11.1213 41.7044 11.2806 41.9468C11.4397 42.1893 11.5874 42.3863 11.7239 42.5379L16.1115 47.3347H19.3169ZM10.5189 47.3347V35.2859H7.85889V47.3347H10.5189ZM28.5469 41.083C28.8499 41.0527 29.1229 40.9729 29.3653 40.8441C29.6078 40.7154 29.8125 40.5602 29.979 40.3783C30.2217 40.1053 30.3731 39.7833 30.4339 39.4121C30.4944 39.0406 30.5247 38.6957 30.5247 38.3776C30.5247 38.0895 30.4944 37.7334 30.4339 37.3091C30.3731 36.8848 30.1912 36.4984 29.8882 36.1497C29.7063 35.9376 29.498 35.7747 29.263 35.661C29.028 35.5473 28.7894 35.4601 28.5469 35.3996C28.3045 35.3387 28.0618 35.3046 27.8193 35.2972C27.5769 35.2895 27.357 35.2859 27.1603 35.2859H21.7041C21.4463 35.2859 21.1775 35.3123 20.897 35.3654C20.6166 35.4186 20.3474 35.5509 20.0899 35.7631C19.8323 35.9755 19.6768 36.2103 19.624 36.4678C19.5709 36.7257 19.5442 36.9604 19.5442 37.1726V45.5614C19.5442 45.7584 19.567 45.9857 19.6124 46.2436C19.6581 46.5012 19.7869 46.7208 19.9991 46.9027C20.2112 47.0997 20.4649 47.2211 20.7605 47.2665C21.056 47.3119 21.3326 47.3347 21.5905 47.3347H27.3194C27.668 47.3347 28.0695 47.3006 28.5241 47.2323C28.9787 47.1641 29.3879 46.9484 29.7517 46.5846C29.9487 46.3875 30.1004 46.1676 30.2066 45.9252C30.3125 45.6828 30.3921 45.4403 30.4452 45.1976C30.4983 44.9552 30.5324 44.724 30.5476 44.5044C30.5627 44.2845 30.5701 44.0914 30.5701 43.9246C30.5701 43.6065 30.5437 43.2691 30.4906 42.913C30.4375 42.5569 30.2897 42.2272 30.0473 41.924C29.9111 41.7575 29.714 41.5943 29.4562 41.4352C29.1986 41.2762 28.8956 41.1738 28.5469 41.1284V41.083ZM22.2041 40.0827V37.923C22.2041 37.8471 22.2118 37.7714 22.227 37.6957C22.2421 37.6198 22.2875 37.5441 22.3632 37.4681C22.4391 37.3925 22.5226 37.3509 22.6134 37.3432C22.7045 37.3355 22.7875 37.3319 22.8635 37.3319H26.3645C26.5464 37.3319 26.7282 37.3471 26.9101 37.3773C27.092 37.4076 27.2585 37.491 27.4101 37.6275C27.5769 37.7788 27.6793 37.9533 27.717 38.1503C27.755 38.3474 27.774 38.5367 27.774 38.7186C27.774 38.8854 27.755 39.0557 27.717 39.2302C27.6793 39.4044 27.5846 39.5673 27.433 39.7189C27.2662 39.8857 27.0804 39.988 26.876 40.0257C26.6712 40.0637 26.4858 40.0827 26.319 40.0827H22.2041ZM22.2041 42.1287H26.3645C26.5161 42.1287 26.7015 42.1477 26.9214 42.1854C27.1413 42.2234 27.3345 42.3332 27.5012 42.5151C27.6526 42.6818 27.7437 42.8676 27.774 43.0721C27.8042 43.2768 27.8193 43.47 27.8193 43.6519C27.8193 43.8489 27.8004 44.0685 27.7627 44.3112C27.7247 44.5537 27.6223 44.7581 27.4556 44.9249C27.2891 45.0917 27.092 45.194 26.8647 45.2317C26.6371 45.2697 26.4249 45.2887 26.2279 45.2887H22.9089C22.803 45.2887 22.7006 45.281 22.6021 45.2658C22.5036 45.2507 22.4163 45.1976 22.3406 45.1068C22.2952 45.0311 22.2611 44.9439 22.2383 44.8454C22.2154 44.7468 22.2041 44.6522 22.2041 44.5611V42.1287ZM32.639 35.2859V37.3319H38.5725C38.7847 37.3319 39.0082 37.3622 39.2432 37.4227C39.4779 37.4833 39.6865 37.6275 39.8681 37.8548C40.0197 38.0367 40.1144 38.226 40.1524 38.423C40.1904 38.6201 40.2094 38.8094 40.2094 38.9913V39.8326H34.9806C34.6622 39.8326 34.3099 39.8667 33.9232 39.9349C33.5369 40.0032 33.1541 40.2038 32.7752 40.5373C32.3206 40.9314 32.0366 41.386 31.9229 41.9014C31.809 42.4166 31.7523 42.9394 31.7523 43.47C31.7523 43.6973 31.7598 43.9549 31.7752 44.243C31.7903 44.5308 31.8318 44.8264 31.9001 45.1296C31.9683 45.4326 32.0743 45.7243 32.2182 46.0047C32.3624 46.2852 32.5556 46.5314 32.798 46.7436C33.1467 47.0469 33.5141 47.2211 33.9007 47.2665C34.2871 47.3119 34.647 47.3347 34.9806 47.3347H40.7323C41.0201 47.3347 41.3156 47.3083 41.6189 47.2552C41.9218 47.2021 42.1794 47.0694 42.3916 46.8573C42.6038 46.6451 42.7364 46.3875 42.7895 46.0843C42.8427 45.7813 42.8691 45.5237 42.8691 45.3115V39.0595C42.8691 38.3776 42.7857 37.7978 42.6189 37.3204C42.4525 36.8432 42.2402 36.4755 41.9824 36.218C41.7097 35.9298 41.3536 35.7025 40.9141 35.5358C40.4744 35.3693 39.9972 35.2859 39.4818 35.2859H32.639ZM40.2094 41.8786V44.6522C40.2094 44.743 40.2017 44.8302 40.1865 44.9136C40.1714 44.997 40.1183 45.0765 40.0275 45.1522C39.9364 45.2282 39.834 45.2697 39.7204 45.2774C39.6067 45.2848 39.5121 45.2887 39.4364 45.2887H35.7307C35.5639 45.2887 35.4011 45.2507 35.242 45.1751C35.0829 45.0991 34.9577 45.016 34.8669 44.9249C34.7001 44.7581 34.5978 44.5385 34.5598 44.2655C34.5221 43.9928 34.5031 43.7655 34.5031 43.5836C34.5031 43.1442 34.5411 42.8335 34.6168 42.6516C34.6924 42.4697 34.7532 42.3483 34.7986 42.2878C34.9503 42.0907 35.1283 41.9732 35.3328 41.9355C35.5375 41.8976 35.6853 41.8786 35.7761 41.8786H40.2094ZM47.3477 47.3347H50.7125C51.0155 47.3347 51.3528 47.3234 51.7241 47.3006C52.0953 47.2777 52.4742 47.2098 52.8605 47.0961C53.2472 46.9825 53.6184 46.808 53.9745 46.573C54.3309 46.3383 54.6529 46.0163 54.9407 45.6068C55.1532 45.3038 55.3235 44.9703 55.4523 44.6068C55.5811 44.243 55.6796 43.8641 55.7478 43.47C55.8161 43.0759 55.8579 42.6744 55.8731 42.2652C55.8882 41.856 55.8956 41.4542 55.8956 41.0602C55.8956 40.7266 55.8882 40.3667 55.8731 39.9803C55.8579 39.594 55.8087 39.2035 55.7253 38.8094C55.6419 38.4156 55.5131 38.029 55.3387 37.65C55.1645 37.2711 54.9256 36.9227 54.6226 36.6043C54.3348 36.3014 54.0238 36.0625 53.6905 35.8883C53.357 35.7138 53.0273 35.5815 52.7015 35.4904C52.3757 35.3996 52.0727 35.3426 51.7923 35.32C51.5119 35.2972 51.273 35.2859 51.076 35.2859H46.8703C46.643 35.2859 46.3929 35.3085 46.1202 35.3539C45.8475 35.3996 45.5973 35.5055 45.37 35.6723C45.2183 35.7936 45.0667 35.9717 44.9153 36.2064C44.7637 36.4414 44.6878 36.756 44.6878 37.15V51.1995H47.3477V47.3347ZM47.3477 45.2887V37.9002C47.3477 37.7486 47.4083 37.6124 47.5297 37.491C47.5751 37.4607 47.632 37.4266 47.7003 37.3886C47.7682 37.3509 47.8326 37.3319 47.8935 37.3319H50.5077C51.0988 37.3319 51.5914 37.4607 51.9855 37.7183C52.3796 37.9759 52.66 38.3017 52.8267 38.6958C52.9024 38.8625 52.9745 39.1317 53.0425 39.5029C53.1107 39.8741 53.1448 40.4691 53.1448 41.2875C53.1448 42.1818 53.0917 42.8409 52.9858 43.2652C52.8796 43.6899 52.7659 43.9928 52.6448 44.1747C52.4932 44.4172 52.2431 44.6635 51.8944 44.9136C51.546 45.1638 51.0383 45.2887 50.3712 45.2887H47.3477ZM63.6705 47.3347V37.3319H68.1945V35.2859H56.4867V37.3319H61.0108V47.3347H63.6705ZM80.9027 47.3347V36.991C80.9027 36.5361 80.8271 36.1877 80.6754 35.945C80.5238 35.7025 80.3535 35.5206 80.1638 35.3996C79.9745 35.2782 79.7813 35.2061 79.5843 35.1836C79.3872 35.1607 79.2431 35.1494 79.1523 35.1494C78.8796 35.1494 78.5992 35.1987 78.311 35.2972C78.0232 35.3957 77.7579 35.6192 77.5154 35.9678L72.1501 43.8563C72.1047 43.9323 72.0593 44.0041 72.0139 44.0724C71.9685 44.1406 71.9076 44.1747 71.832 44.1747C71.7409 44.1747 71.6881 44.1483 71.6729 44.0952C71.6578 44.0421 71.6501 43.9626 71.6501 43.8563L71.7637 35.2859H69.1038V45.7662C69.1038 45.9329 69.1227 46.1145 69.1607 46.3116C69.1987 46.5086 69.2783 46.6905 69.3993 46.8573C69.5207 47.024 69.6949 47.168 69.9225 47.2893C70.1498 47.4104 70.4605 47.4712 70.8545 47.4712C71.3091 47.4712 71.6578 47.3917 71.9002 47.2323C72.1427 47.0733 72.37 46.8347 72.5822 46.5163L77.8792 38.764C77.97 38.6278 78.0383 38.5405 78.0837 38.5026C78.1291 38.4649 78.1671 38.4459 78.1974 38.4459C78.2885 38.4459 78.3339 38.4762 78.3339 38.5367C78.3339 38.5972 78.3339 38.6732 78.3339 38.764L78.243 47.3347H80.9027ZM85.3814 47.3347H88.7461C89.0491 47.3347 89.3865 47.3234 89.7577 47.3006C90.129 47.2777 90.5079 47.2098 90.8942 47.0961C91.2809 46.9825 91.6521 46.808 92.0082 46.573C92.3646 46.3383 92.6865 46.0163 92.9743 45.6068C93.1868 45.3038 93.3571 44.9703 93.4859 44.6068C93.6147 44.243 93.7133 43.8641 93.7815 43.47C93.8498 43.0759 93.8916 42.6744 93.9067 42.2652C93.9218 41.856 93.9292 41.4542 93.9292 41.0602C93.9292 40.7266 93.9218 40.3667 93.9067 39.9803C93.8916 39.594 93.8423 39.2035 93.759 38.8094C93.6756 38.4156 93.5468 38.029 93.3723 37.65C93.1981 37.2711 92.9592 36.9227 92.6563 36.6043C92.3684 36.3014 92.0574 36.0625 91.7242 35.8883C91.3907 35.7138 91.061 35.5815 90.7352 35.4904C90.4094 35.3996 90.1064 35.3426 89.826 35.32C89.5455 35.2972 89.3066 35.2859 89.1096 35.2859H84.904C84.6767 35.2859 84.4265 35.3085 84.1538 35.3539C83.8811 35.3996 83.6309 35.5055 83.4036 35.6723C83.252 35.7936 83.1004 35.9717 82.949 36.2064C82.7974 36.4414 82.7214 36.756 82.7214 37.15V51.1995H85.3814V47.3347ZM85.3814 45.2887V37.9002C85.3814 37.7486 85.4419 37.6124 85.5633 37.491C85.6087 37.4607 85.6657 37.4266 85.7339 37.3886C85.8019 37.3509 85.8662 37.3319 85.9271 37.3319H88.5414C89.1325 37.3319 89.6251 37.4607 90.0191 37.7183C90.4132 37.9759 90.6936 38.3017 90.8604 38.6958C90.936 38.8625 91.0082 39.1317 91.0761 39.5029C91.1444 39.8741 91.1785 40.4691 91.1785 41.2875C91.1785 42.1818 91.1254 42.8409 91.0195 43.2652C90.9132 43.6899 90.7996 43.9928 90.6785 44.1747C90.5269 44.4172 90.2767 44.6635 89.928 44.9136C89.5796 45.1638 89.0719 45.2887 88.4048 45.2887H85.3814Z" fill="white"/>
<path d="M100.258 49.3883H108.968C109.198 49.3883 109.449 49.3841 109.72 49.3758C109.992 49.3678 110.275 49.3307 110.572 49.2648C110.868 49.1989 111.159 49.1004 111.448 48.9687C111.735 48.8372 112.003 48.6479 112.249 48.4013C112.513 48.1381 112.726 47.8336 112.891 47.4882C113.055 47.1428 113.175 46.7808 113.249 46.4025C113.323 46.0241 113.372 45.6336 113.397 45.2306C113.421 44.8277 113.434 44.4286 113.434 44.0339C113.434 43.4416 113.393 42.8413 113.31 42.2327C113.228 41.6241 112.973 41.0481 112.545 40.5054C112.118 39.9626 111.653 39.6089 111.151 39.4442C110.65 39.2798 110.136 39.1976 109.609 39.1976H104.847C104.666 39.1976 104.46 39.1772 104.23 39.1359C104 39.0947 103.819 39.0083 103.687 38.8769C103.556 38.7288 103.477 38.5478 103.453 38.3338C103.428 38.1202 103.416 37.9229 103.416 37.7418V35.5949C103.416 35.4964 103.42 35.3813 103.428 35.2495C103.436 35.1181 103.482 35.0113 103.564 34.9288C103.63 34.8466 103.724 34.789 103.847 34.756C103.971 34.7231 104.098 34.7068 104.23 34.7068H112.866V32.116H102.453C102.371 32.116 102.26 32.1201 102.12 32.1281C101.981 32.1364 101.828 32.1611 101.664 32.2023C101.499 32.2436 101.335 32.305 101.17 32.3875C101.006 32.4697 100.849 32.5848 100.701 32.7329C100.57 32.8643 100.446 33.0578 100.331 33.3127C100.216 33.5676 100.159 33.9089 100.159 34.3368V38.7042C100.159 38.8522 100.167 39.0371 100.183 39.2594C100.2 39.4813 100.237 39.7157 100.294 39.9626C100.352 40.2092 100.446 40.452 100.578 40.6905C100.71 40.9288 100.899 41.1303 101.146 41.295C101.31 41.4265 101.503 41.5253 101.725 41.5911C101.948 41.6567 102.17 41.7021 102.392 41.7268C102.614 41.7514 102.832 41.768 103.046 41.776C103.26 41.7843 103.449 41.7885 103.613 41.7885H108.203C108.663 41.7885 109.009 41.8624 109.239 42.0104C109.469 42.1585 109.626 42.2983 109.708 42.43C109.872 42.6603 109.975 42.9481 110.016 43.2935C110.057 43.6389 110.078 43.9268 110.078 44.1573C110.078 44.4861 110.049 44.8357 109.992 45.206C109.934 45.5761 109.839 45.8597 109.708 46.0571C109.477 46.4025 109.19 46.6123 108.844 46.6865C108.499 46.7603 108.203 46.7974 107.956 46.7974H100.258V49.3883ZM116.197 49.3883H123.97C124.233 49.3883 124.546 49.3758 124.908 49.3512C125.27 49.3265 125.64 49.2485 126.018 49.1167C126.396 48.9853 126.766 48.7755 127.128 48.4877C127.49 48.1998 127.803 47.7927 128.066 47.2663C128.329 46.7399 128.494 46.1722 128.56 45.5636C128.625 44.955 128.658 44.3381 128.658 43.7131V36.7549C128.658 36.327 128.613 35.846 128.522 35.3112C128.432 34.7768 128.222 34.2709 127.893 33.7937C127.63 33.3991 127.326 33.0905 126.98 32.8685C126.635 32.6465 126.273 32.4818 125.895 32.375C125.516 32.2682 125.134 32.1982 124.747 32.1652C124.361 32.1323 124.003 32.116 123.674 32.116H120.195C119.652 32.116 119.064 32.1735 118.43 32.2887C117.797 32.4038 117.226 32.6916 116.716 33.1522C116.403 33.4483 116.16 33.7774 115.988 34.1391C115.815 34.5011 115.683 34.8753 115.593 35.262C115.502 35.6486 115.449 36.027 115.432 36.397C115.416 36.7671 115.408 37.1003 115.408 37.3964C115.408 38.1202 115.457 38.8276 115.556 39.5184C115.655 40.2092 115.943 40.8345 116.419 41.3935C116.666 41.6897 116.934 41.9241 117.221 42.0968C117.509 42.2695 117.793 42.3971 118.073 42.4793C118.352 42.5615 118.611 42.6152 118.85 42.6398C119.089 42.6644 119.282 42.6766 119.43 42.6766H125.401V44.1324C125.401 44.4122 125.372 44.7618 125.315 45.1811C125.257 45.6007 125.089 45.9502 124.809 46.2298C124.529 46.5096 124.208 46.674 123.846 46.7232C123.485 46.7728 123.164 46.7974 122.884 46.7974H116.197V49.3883ZM125.401 40.0858H121.404C121.289 40.0858 121.145 40.0816 120.972 40.0736C120.799 40.0653 120.618 40.0407 120.429 39.9994C120.24 39.9585 120.055 39.9051 119.874 39.8392C119.693 39.7733 119.537 39.6828 119.405 39.5677C119.175 39.3374 119.01 39.0249 118.912 38.63C118.813 38.2353 118.764 37.8487 118.764 37.4703C118.764 36.8617 118.834 36.3887 118.973 36.0516C119.113 35.7142 119.273 35.4635 119.454 35.2991C119.619 35.1344 119.837 34.9946 120.108 34.8795C120.38 34.7644 120.738 34.7068 121.182 34.7068H123.18C123.608 34.7068 123.958 34.7685 124.229 34.892C124.501 35.0151 124.71 35.151 124.858 35.2991C125.122 35.5623 125.278 35.8623 125.327 36.1997C125.376 36.5368 125.401 36.8041 125.401 37.0015V40.0858Z" fill="white"/>
<path d="M28.843 13.6952H38.2164C38.787 13.6952 39.4188 13.6341 40.1117 13.5118C40.8046 13.3895 41.4909 13.0296 42.1702 12.4317C42.9853 11.7251 43.4948 10.91 43.6987 9.98623C43.9022 9.06219 44.0043 8.12478 44.0043 7.17373C44.0043 6.76631 43.9906 6.3043 43.9633 5.78797C43.9363 5.27164 43.8616 4.74195 43.7393 4.19833C43.6171 3.655 43.4269 3.13185 43.1687 2.62917C42.9105 2.1265 42.5643 1.68495 42.1292 1.30453C41.5043 0.761198 40.8455 0.448736 40.1526 0.367133C39.4597 0.28553 38.8143 0.244873 38.2164 0.244873H27.9047C27.3884 0.244873 26.8585 0.292353 26.3151 0.387606C25.7715 0.482563 25.3097 0.720259 24.9293 1.10068C24.5489 1.4811 24.3109 1.94312 24.216 2.48675C24.1207 3.03008 24.0732 3.49209 24.0732 3.87251V15.0809L24.0741 15.1575V21.8469H28.843V13.6952ZM28.8421 10.0269V5.05442C28.8421 4.89122 28.8555 4.73514 28.8828 4.58558C28.9101 4.43632 29.005 4.29359 29.1682 4.15769C29.3311 4.02178 29.5146 3.94699 29.7184 3.93364C29.9223 3.91999 30.092 3.91317 30.2279 3.91317H36.8716C37.1704 3.91317 37.4624 3.98112 37.7479 4.11703C38.033 4.25294 38.2574 4.40219 38.4203 4.5654C38.7191 4.86421 38.9028 5.25829 38.9704 5.74731C39.0384 6.23634 39.0725 6.64406 39.0725 6.97017C39.0725 7.75802 39.0046 8.315 38.8686 8.64111C38.7327 8.96723 38.6241 9.18474 38.5425 9.29335C38.271 9.64647 37.9517 9.85715 37.5847 9.9251C37.2179 9.99306 36.9529 10.0269 36.79 10.0269H28.8421Z" fill="#2B7AF1"/>
</svg>
