<svg width="32" height="25" viewBox="0 0 32 25" fill="none" xmlns="http://www.w3.org/2000/svg">
<path d="M3.97705 6.96014C3.97705 6.41099 4.42222 5.96582 4.97137 5.96582H26.8464C27.3955 5.96582 27.8407 6.41099 27.8407 6.96014C27.8407 7.50929 27.3955 7.95446 26.8464 7.95446H4.97137C4.42222 7.95446 3.97705 7.50929 3.97705 6.96014Z" fill="#111111"/>
<path d="M3.97705 12.9262C3.97705 12.3771 4.42222 11.9319 4.97137 11.9319H26.8464C27.3955 11.9319 27.8407 12.3771 27.8407 12.9262C27.8407 13.4754 27.3955 13.9205 26.8464 13.9205H4.97137C4.42222 13.9205 3.97705 13.4754 3.97705 12.9262Z" fill="#111111"/>
<path d="M3.97705 18.892C3.97705 18.3429 4.42222 17.8977 4.97137 17.8977H26.8464C27.3955 17.8977 27.8407 18.3429 27.8407 18.892C27.8407 19.4412 27.3955 19.8863 26.8464 19.8863H4.97137C4.42222 19.8863 3.97705 19.4412 3.97705 18.892Z" fill="#111111"/>
</svg>
